<?xml version="1.0" standalone="no"?>
<!DOCTYPE svg PUBLIC "-//W3C//DTD SVG 20010904//EN"
 "http://www.w3.org/TR/2001/REC-SVG-20010904/DTD/svg10.dtd">
<svg version="1.0" xmlns="http://www.w3.org/2000/svg"
 width="30.000000pt" height="30.000000pt" viewBox="0 0 30.000000 30.000000"
 preserveAspectRatio="xMidYMid meet">

<g transform="translate(0.000000,30.000000) scale(0.100000,-0.100000)"
fill="#000000" stroke="none">
<path d="M140 219 l0 -51 -26 17 c-36 23 -45 8 -11 -17 l28 -21 -27 -28 c-34
-35 -24 -52 11 -19 l25 23 0 -46 c0 -26 4 -47 9 -47 5 0 23 17 41 37 l33 37
-28 23 -28 24 27 28 26 27 -33 32 c-18 18 -36 32 -40 32 -4 0 -7 -23 -7 -51z
m50 -19 c0 -4 -7 -10 -15 -14 -11 -4 -15 2 -15 21 0 21 2 24 15 13 8 -7 15
-16 15 -20z m-4 -91 c3 -6 -1 -18 -10 -27 -15 -15 -16 -14 -16 11 0 27 13 36
26 16z"/>
</g>
</svg>
